<svg width="81" height="25" viewBox="0 0 81 25" fill="none" xmlns="http://www.w3.org/2000/svg">
    <g clip-path="url(#clip0_154_1467)">
        <path d="M2.44136 15.255V10.41H0.619141V8.3458L4.08137 5.03087H6.02505V7.52011H9.90031V10.41H6.02505V14.7814C6.02505 15.7123 6.23562 16.3518 6.65675 16.6999C7.07789 17.048 7.67719 17.2221 8.45468 17.2221C8.76243 17.2221 9.06613 17.1856 9.36578 17.1128C9.67353 17.0399 9.90031 16.959 10.0461 16.8699L10.2769 16.7728V19.7599C9.6614 20.0594 8.87987 20.2051 7.93231 20.197C6.09388 20.197 4.71711 19.7963 3.80195 18.9949C2.89489 18.1935 2.44136 16.9468 2.44136 15.255ZM17.8583 20.197C15.7526 20.197 14.0438 19.6263 12.7318 18.4849C11.4198 17.3435 10.7638 15.7609 10.7638 13.7371C10.7638 11.7133 11.4198 10.1308 12.7318 8.98936C14.0438 7.84796 15.7526 7.27725 17.8583 7.27725C19.964 7.27725 21.6728 7.84796 22.9848 8.98936C24.2968 10.1308 24.9529 11.7133 24.9529 13.7371C24.9529 15.7609 24.2968 17.3435 22.9848 18.4849C21.6728 19.6263 19.964 20.197 17.8583 20.197ZM17.8583 17.1249C18.9192 17.1249 19.7534 16.8092 20.3608 16.1778C20.9682 15.5464 21.2719 14.7328 21.2719 13.7371C21.2719 12.7414 20.9682 11.9279 20.3608 11.2965C19.7534 10.665 18.9192 10.3493 17.8583 10.3493C16.7893 10.3493 15.9591 10.665 15.3679 11.2965C14.7605 11.9279 14.4568 12.7414 14.4568 13.7371C14.4568 14.7328 14.7605 15.5464 15.3679 16.1778C15.9591 16.8092 16.7893 17.1249 17.8583 17.1249ZM26.9338 2.54163H30.5175V19.9542H26.9338V2.54163ZM38.5363 20.197C36.8355 20.197 35.4062 19.6182 34.2481 18.4606C33.09 17.303 32.5109 15.7285 32.5109 13.7371C32.5109 11.7457 33.09 10.1712 34.2481 9.01365C35.4062 7.85605 36.8355 7.27725 38.5363 7.27725C39.1194 7.27725 39.6742 7.35415 40.2006 7.50796C40.7352 7.65367 41.1685 7.84392 41.5005 8.07867C42.1242 8.5239 42.5615 8.9327 42.8126 9.30507L42.9461 9.56007H43.1161V7.52011H46.6999V24.9326H43.1161V18.4363H42.9704C42.9057 18.5416 42.687 18.7439 42.3144 19.0435C42.0634 19.2458 41.7759 19.428 41.4519 19.5899C40.6421 19.9946 39.6701 20.197 38.5363 20.197ZM37.1394 11.3693C36.5157 11.9926 36.2038 12.7819 36.2038 13.7371C36.2038 14.7004 36.5157 15.4857 37.1394 16.0928C37.7548 16.708 38.593 17.0156 39.654 17.0156C40.6988 17.0156 41.537 16.7121 42.1687 16.1049C42.8004 15.514 43.1161 14.7247 43.1161 13.7371C43.1161 12.7819 42.8043 11.9926 42.1809 11.3693C41.5652 10.7622 40.7231 10.4586 39.654 10.4586C38.6012 10.4586 37.763 10.7622 37.1394 11.3693Z" fill="#0F0F0F"/>
        <path d="M68.4473 2.54163H80.9355V5.85658H76.6595V16.6514H80.9355V19.9541H68.4473V16.6514H72.7233V5.85658H68.4473V2.54163Z" fill="#0F0F0F"/>
        <path d="M67.2723 19.9542H63.142L61.9148 16.9427H53.5083L52.3178 19.9542H48.1875L49.5799 16.5006C51.8782 14.7802 54.7327 13.7615 57.8249 13.7615C60.7976 13.7615 63.5502 14.7031 65.8005 16.3044L63.9371 11.6836C62.5195 11.1367 61.0098 10.7743 59.438 10.6262L60.6273 13.7615L57.8453 6.42721H57.5902L54.8084 13.7615L55.9887 10.6488C54.4135 10.8181 52.9027 11.2024 51.4867 11.7723L55.2093 2.54156H60.2505L67.2723 19.9542Z" fill="#0F0F0F"/>
    </g>
    <defs>
        <clipPath id="clip0_154_1467">
            <rect width="81" height="25" fill="white"/>
        </clipPath>
    </defs>
</svg>
